<svg xmlns="http://www.w3.org/2000/svg" width="192" height="192" viewBox="0 0 192 192">
  <defs>
    <linearGradient id="bg" x1="0" y1="0" x2="1" y2="1">
      <stop offset="0%" stop-color="#818cf8"/>
      <stop offset="100%" stop-color="#4f46e5"/>
    </linearGradient>
  </defs>
  <rect width="192" height="192" rx="42" fill="url(#bg)"/>
  <!-- Outer recurrence ring -->
  <circle cx="96" cy="96" r="62" stroke="white" stroke-opacity="0.15" stroke-width="8" fill="none"/>
  <!-- Animated-look circular arrows -->
  <path d="M96 34a62 62 0 0 1 53.7 31" stroke="white" stroke-opacity="0.35" stroke-width="8" fill="none" stroke-linecap="round"/>
  <path d="M149.7 65l-6 12-12-6" stroke="white" stroke-opacity="0.35" stroke-width="6" fill="none" stroke-linecap="round" stroke-linejoin="round"/>
  <path d="M96 158a62 62 0 0 1-53.7-31" stroke="white" stroke-opacity="0.35" stroke-width="8" fill="none" stroke-linecap="round"/>
  <path d="M42.3 127l6-12 12 6" stroke="white" stroke-opacity="0.35" stroke-width="6" fill="none" stroke-linecap="round" stroke-linejoin="round"/>
  <!-- Dollar sign -->
  <path d="M96 62v68" stroke="white" stroke-width="8" fill="none" stroke-linecap="round"/>
  <path d="M76 82c0-11 8.5-16 20-16s20 5 20 14c0 16-40 13-40 30 0 10 8.5 16 20 16s20-5 20-16" stroke="white" stroke-width="8" fill="none" stroke-linecap="round" stroke-linejoin="round"/>
</svg>
